<svg width="70" height="56" viewBox="0 0 70 56" fill="none" xmlns="http://www.w3.org/2000/svg">
<path d="M65.7086 55.2852H4.99194C4.09363 55.2839 3.23249 54.9239 2.59729 54.2842C1.96208 53.6445 1.60466 52.7773 1.60335 51.8726V50.4816C1.60405 50.2188 1.67325 49.9607 1.80405 49.7333C1.93484 49.5059 2.12263 49.317 2.34864 49.1856L7.87872 42.9759V31.2169C7.87872 30.9409 7.9876 30.6762 8.18142 30.481C8.37523 30.2858 8.63811 30.1761 8.9122 30.1761C9.1863 30.1761 9.44917 30.2858 9.64299 30.481C9.8368 30.6762 9.94567 30.9409 9.94567 31.2169V42.3554H30.4015C30.932 40.4085 31.9412 38.6278 33.3359 37.1777C34.7306 35.7276 36.4659 34.655 38.3812 34.0591C37.541 33.3421 36.8665 32.4489 36.4047 31.442C35.943 30.4351 35.7052 29.3387 35.708 28.2297C35.708 24.3968 38.6594 21.2794 42.2865 21.2794C45.9136 21.2794 48.865 24.3968 48.865 28.2297C48.8678 29.3387 48.63 30.4351 48.1683 31.442C47.7066 32.4489 47.032 33.3421 46.1918 34.0591C48.1108 34.6521 49.8501 35.7234 51.2485 37.1737C52.6468 38.624 53.6591 40.4062 54.1913 42.3554H60.74V18.157H33.8349C33.5608 18.157 33.2979 18.0474 33.1041 17.8522C32.9103 17.657 32.8014 17.3923 32.8014 17.1162C32.8014 16.8402 32.9103 16.5755 33.1041 16.3803C33.2979 16.1851 33.5608 16.0754 33.8349 16.0754H60.74V15.545C60.7387 14.5417 60.3427 13.5798 59.6387 12.8698C58.9347 12.1599 57.98 11.7598 56.9837 11.7571H33.8349C33.6935 11.767 33.5515 11.7475 33.4179 11.6998C33.2843 11.6521 33.1619 11.5773 33.0582 11.4799C32.9546 11.3825 32.8719 11.2647 32.8154 11.1338C32.7589 11.0028 32.7298 10.8616 32.7298 10.7189C32.7298 10.5761 32.7589 10.4349 32.8154 10.3039C32.8719 10.173 32.9546 10.0552 33.0582 9.95783C33.1619 9.86045 33.2843 9.78558 33.4179 9.73788C33.5515 9.69018 33.6935 9.67067 33.8349 9.68056H57.0036C58.5472 9.68321 60.0268 10.3019 61.1183 11.4011C62.2098 12.5004 62.8242 13.9905 62.8268 15.545V42.9759L68.3619 49.1856C68.5879 49.317 68.7757 49.5059 68.9065 49.7333C69.0373 49.9607 69.1065 50.2188 69.1072 50.4816V51.8726C69.1065 52.3214 69.0181 52.7657 68.847 53.1801C68.6758 53.5945 68.4253 53.9709 68.1097 54.2878C67.7941 54.6047 67.4197 54.8559 67.0077 55.027C66.5957 55.1981 66.1543 55.2859 65.7086 55.2852ZM3.66035 51.067V51.8726C3.66035 52.2261 3.79945 52.5652 4.04716 52.8156C4.29488 53.066 4.63103 53.2073 4.98201 53.2086H65.7086C66.0596 53.2073 66.3958 53.066 66.6435 52.8156C66.8912 52.5652 67.0303 52.2261 67.0303 51.8726V51.067H3.66035ZM5.29006 48.9904H65.4105L61.3512 44.437H53.62H53.5752C53.4375 44.4646 53.2956 44.4646 53.1579 44.437H9.3544L5.29006 48.9904ZM32.548 42.3554H52.0449C50.7332 38.3523 46.8278 35.5302 42.2964 35.5302C37.7651 35.5302 33.8696 38.3323 32.5579 42.3554H32.548ZM42.2964 23.3409C39.8121 23.3409 37.7849 25.5226 37.7849 28.2096C37.7849 30.9868 39.8916 33.4286 42.2964 33.4286C44.7013 33.4286 46.808 30.9868 46.808 28.2096C46.8278 25.5426 44.7957 23.361 42.3064 23.361L42.2964 23.3409ZM59.473 47.9446H58.1513C57.8773 47.9446 57.6144 47.835 57.4206 47.6398C57.2268 47.4446 57.1179 47.1799 57.1179 46.9039C57.1179 46.6278 57.2268 46.3631 57.4206 46.1679C57.6144 45.9727 57.8773 45.8631 58.1513 45.8631H59.473C59.7471 45.8631 60.01 45.9727 60.2038 46.1679C60.3976 46.3631 60.5065 46.6278 60.5065 46.9039C60.5065 47.1799 60.3976 47.4446 60.2038 47.6398C60.01 47.835 59.7471 47.9446 59.473 47.9446ZM54.8422 47.9446H53.5206C53.2465 47.9446 52.9836 47.835 52.7898 47.6398C52.596 47.4446 52.4871 47.1799 52.4871 46.9039C52.4871 46.6278 52.596 46.3631 52.7898 46.1679C52.9836 45.9727 53.2465 45.8631 53.5206 45.8631H54.8422C55.1163 45.8631 55.3792 45.9727 55.573 46.1679C55.7668 46.3631 55.8757 46.6278 55.8757 46.9039C55.8757 47.1799 55.7668 47.4446 55.573 47.6398C55.3792 47.835 55.1163 47.9446 54.8422 47.9446ZM50.2164 47.9446H48.8948C48.6207 47.9446 48.3578 47.835 48.164 47.6398C47.9702 47.4446 47.8613 47.1799 47.8613 46.9039C47.8613 46.6278 47.9702 46.3631 48.164 46.1679C48.3578 45.9727 48.6207 45.8631 48.8948 45.8631H50.2164C50.4905 45.8631 50.7534 45.9727 50.9472 46.1679C51.141 46.3631 51.2499 46.6278 51.2499 46.9039C51.2499 47.1799 51.141 47.4446 50.9472 47.6398C50.7534 47.835 50.4905 47.9446 50.2164 47.9446ZM40.304 47.9446H38.9824C38.7083 47.9446 38.4454 47.835 38.2516 47.6398C38.0578 47.4446 37.9489 47.1799 37.9489 46.9039C37.9489 46.6278 38.0578 46.3631 38.2516 46.1679C38.4454 45.9727 38.7083 45.8631 38.9824 45.8631H40.304C40.5781 45.8631 40.841 45.9727 41.0348 46.1679C41.2286 46.3631 41.3375 46.6278 41.3375 46.9039C41.3375 47.1799 41.2286 47.4446 41.0348 47.6398C40.841 47.835 40.5781 47.9446 40.304 47.9446ZM35.6732 47.9446H34.3516C34.0775 47.9446 33.8146 47.835 33.6208 47.6398C33.427 47.4446 33.3181 47.1799 33.3181 46.9039C33.3181 46.6278 33.427 46.3631 33.6208 46.1679C33.8146 45.9727 34.0775 45.8631 34.3516 45.8631H35.6732C35.9473 45.8631 36.2102 45.9727 36.404 46.1679C36.5978 46.3631 36.7067 46.6278 36.7067 46.9039C36.7067 47.1799 36.5978 47.4446 36.404 47.6398C36.2102 47.835 35.9473 47.9446 35.6732 47.9446ZM31.0475 47.9446H29.7357C29.4616 47.9446 29.1988 47.835 29.005 47.6398C28.8111 47.4446 28.7023 47.1799 28.7023 46.9039C28.7023 46.6278 28.8111 46.3631 29.005 46.1679C29.1988 45.9727 29.4616 45.8631 29.7357 45.8631H31.0574C31.3315 45.8631 31.5944 45.9727 31.7882 46.1679C31.982 46.3631 32.0909 46.6278 32.0909 46.9039C32.0909 47.1799 31.982 47.4446 31.7882 47.6398C31.5944 47.835 31.3315 47.9446 31.0574 47.9446H31.0475ZM26.4217 47.9446H25.1C24.8259 47.9446 24.563 47.835 24.3692 47.6398C24.1754 47.4446 24.0665 47.1799 24.0665 46.9039C24.0665 46.6278 24.1754 46.3631 24.3692 46.1679C24.563 45.9727 24.8259 45.8631 25.1 45.8631H26.4564C26.7305 45.8631 26.9934 45.9727 27.1872 46.1679C27.381 46.3631 27.4899 46.6278 27.4899 46.9039C27.4899 47.1799 27.381 47.4446 27.1872 47.6398C26.9934 47.835 26.7305 47.9446 26.4564 47.9446H26.4217ZM21.7959 47.9446H20.4941C20.22 47.9446 19.9571 47.835 19.7633 47.6398C19.5695 47.4446 19.4606 47.1799 19.4606 46.9039C19.4606 46.6278 19.5695 46.3631 19.7633 46.1679C19.9571 45.9727 20.22 45.8631 20.4941 45.8631H21.8207C22.0948 45.8631 22.3577 45.9727 22.5515 46.1679C22.7453 46.3631 22.8542 46.6278 22.8542 46.9039C22.8542 47.1799 22.7453 47.4446 22.5515 47.6398C22.3577 47.835 22.0948 47.9446 21.8207 47.9446H21.7959ZM17.1651 47.9446H15.8434C15.5694 47.9446 15.3065 47.835 15.1127 47.6398C14.9189 47.4446 14.81 47.1799 14.81 46.9039C14.81 46.6278 14.9189 46.3631 15.1127 46.1679C15.3065 45.9727 15.5694 45.8631 15.8434 45.8631H17.1651C17.4392 45.8631 17.7021 45.9727 17.8959 46.1679C18.0897 46.3631 18.1986 46.6278 18.1986 46.9039C18.1986 47.1799 18.0897 47.4446 17.8959 47.6398C17.7021 47.835 17.4392 47.9446 17.1651 47.9446ZM12.5393 47.9446H11.2176C10.9435 47.9446 10.6807 47.835 10.4869 47.6398C10.2931 47.4446 10.1842 47.1799 10.1842 46.9039C10.1842 46.6278 10.2931 46.3631 10.4869 46.1679C10.6807 45.9727 10.9435 45.8631 11.2176 45.8631H12.5443C12.8184 45.8631 13.0812 45.9727 13.2751 46.1679C13.4689 46.3631 13.5777 46.6278 13.5777 46.9039C13.5777 47.1799 13.4689 47.4446 13.2751 47.6398C13.0812 47.835 12.8184 47.9446 12.5443 47.9446H12.5393ZM22.4766 34.5044C22.2785 34.5043 22.0825 34.4644 21.8999 34.387C21.7173 34.3097 21.5519 34.1965 21.4133 34.0541L15.8733 28.4748H5.7919C4.49299 28.4735 3.24766 27.9533 2.32919 27.0283C1.41072 26.1034 0.894138 24.8492 0.892822 23.5411V5.6475C0.894139 4.33985 1.41088 3.08622 2.32949 2.16205C3.2481 1.23787 4.49345 0.718749 5.7919 0.71875H25.8701C27.1686 0.718749 28.4139 1.23787 29.3326 2.16205C30.2512 3.08622 30.7679 4.33985 30.7692 5.6475V23.5611C30.7679 24.8692 30.2513 26.1234 29.3329 27.0483C28.4144 27.9733 27.1691 28.4935 25.8701 28.4949H23.9721V32.9983C23.9742 33.2986 23.8868 33.5927 23.7211 33.8425C23.5555 34.0922 23.3193 34.2862 23.043 34.3994C22.8651 34.4756 22.6748 34.518 22.4815 34.5245L22.4766 34.5044ZM5.7919 2.79533C5.04118 2.79666 4.32158 3.09757 3.79074 3.63217C3.2599 4.16677 2.96109 4.89146 2.95977 5.6475V23.5611C2.96109 24.3172 3.2599 25.0418 3.79074 25.5764C4.32158 26.111 5.04118 26.412 5.7919 26.4133H16.0968C16.2954 26.4121 16.4922 26.4509 16.6756 26.5274C16.859 26.6039 17.0255 26.7165 17.1651 26.8586L21.9101 31.6373V27.9144C21.9101 27.5163 22.0672 27.1345 22.3467 26.853C22.6263 26.5714 23.0054 26.4133 23.4007 26.4133H25.8552C26.6064 26.4133 27.3267 26.1128 27.8578 25.5779C28.389 25.043 28.6874 24.3176 28.6874 23.5611V5.6475C28.6874 4.89106 28.389 4.1656 27.8578 3.63072C27.3267 3.09583 26.6064 2.79533 25.8552 2.79533H5.7919ZM15.8534 24.0014C15.6643 24.0013 15.4788 23.9494 15.3168 23.8513L15.0882 23.7112C14.0945 23.1008 5.38447 17.5916 5.38447 11.3368C5.38352 10.1135 5.74788 8.91807 6.43021 7.90593C7.11254 6.89379 8.08131 6.11166 9.2107 5.66113C10.3401 5.2106 11.5779 5.11248 12.7634 5.37953C13.9488 5.64659 15.0272 6.26647 15.8584 7.15865C16.6895 6.26647 17.7678 5.64659 18.9533 5.37953C20.1388 5.11248 21.3766 5.2106 22.506 5.66113C23.6354 6.11166 24.6042 6.89379 25.2865 7.90593C25.9688 8.91807 26.3332 10.1135 26.3322 11.3368C26.3322 17.5966 17.6222 23.1008 16.6285 23.7112L16.39 23.8563C16.227 23.9515 16.0418 24.0016 15.8534 24.0014ZM11.4412 7.31377C10.387 7.31377 9.37599 7.73551 8.63055 8.48623C7.88511 9.23694 7.46633 10.2551 7.46633 11.3168C7.46633 15.3199 12.7977 19.7682 15.8733 21.7197C18.9439 19.7732 24.2802 15.3499 24.2802 11.3168C24.3035 10.4086 24.0195 9.51946 23.4746 8.79539C22.9298 8.07133 22.1566 7.55545 21.282 7.3325C20.4075 7.10956 19.4837 7.19283 18.6624 7.56861C17.8411 7.9444 17.1712 8.59036 16.7626 9.40035C16.6729 9.56407 16.5412 9.70056 16.3813 9.79561C16.2214 9.89066 16.0391 9.94079 15.8534 9.94076C15.6677 9.94079 15.4854 9.89066 15.3255 9.79561C15.1655 9.70056 15.0339 9.56407 14.9441 9.40035C14.6011 8.76693 14.0946 8.23863 13.478 7.87133C12.8613 7.50403 12.1576 7.31139 11.4412 7.31377ZM36.344 15.0296H33.8597C33.5856 15.0296 33.3227 14.92 33.1289 14.7248C32.9351 14.5296 32.8262 14.2649 32.8262 13.9888C32.8262 13.7128 32.9351 13.4481 33.1289 13.2529C33.3227 13.0577 33.5856 12.948 33.8597 12.948H36.344C36.6181 12.948 36.881 13.0577 37.0748 13.2529C37.2686 13.4481 37.3775 13.7128 37.3775 13.9888C37.3775 14.2649 37.2686 14.5296 37.0748 14.7248C36.881 14.92 36.6181 15.0296 36.344 15.0296ZM22.2083 12.4026C21.9342 12.4026 21.6713 12.293 21.4775 12.0978C21.2837 11.9026 21.1748 11.6379 21.1748 11.3618C21.1735 11.1212 21.0776 10.8908 20.9082 10.7211C20.7387 10.5514 20.5095 10.4562 20.2705 10.4562C20.1348 10.4562 20.0004 10.4292 19.875 10.3769C19.7496 10.3246 19.6357 10.248 19.5397 10.1513C19.4438 10.0547 19.3676 9.93994 19.3157 9.81366C19.2637 9.68739 19.237 9.55204 19.237 9.41536C19.237 9.27868 19.2637 9.14335 19.3157 9.01707C19.3676 8.8908 19.4438 8.77606 19.5397 8.67941C19.6357 8.58277 19.7496 8.50611 19.875 8.4538C20.0004 8.4015 20.1348 8.37457 20.2705 8.37457C21.0611 8.37457 21.8194 8.69088 22.3785 9.25392C22.9376 9.81695 23.2517 10.5806 23.2517 11.3769C23.2477 11.652 23.1358 11.9144 22.9402 12.1067C22.7447 12.2989 22.4815 12.4053 22.2083 12.4026Z" fill="#00CBBF"/>
</svg>
